<?xml version="1.0" standalone="no"?>
<svg xmlns:xlink="http://www.w3.org/1999/xlink" id="wave" style="transform:rotate(0deg); transition: 0.3s" viewBox="0 0 1440 100" version="1.1" xmlns="http://www.w3.org/2000/svg"><defs><linearGradient id="sw-gradient-0" x1="0" x2="0" y1="1" y2="0"><stop stop-color="rgba(50, 130, 184, 1)" offset="0%"/><stop stop-color="rgba(144, 224, 239, 1)" offset="100%"/></linearGradient></defs><path style="transform:translate(0, 0px); opacity:1" fill="url(#sw-gradient-0)" d="M0,60L10,53.3C20,47,40,33,60,36.7C80,40,100,60,120,66.7C140,73,160,67,180,61.7C200,57,220,53,240,45C260,37,280,23,300,16.7C320,10,340,10,360,20C380,30,400,50,420,60C440,70,460,70,480,66.7C500,63,520,57,540,56.7C560,57,580,63,600,68.3C620,73,640,77,660,75C680,73,700,67,720,61.7C740,57,760,53,780,58.3C800,63,820,77,840,81.7C860,87,880,83,900,80C920,77,940,73,960,75C980,77,1000,83,1020,86.7C1040,90,1060,90,1080,80C1100,70,1120,50,1140,50C1160,50,1180,70,1200,68.3C1220,67,1240,43,1260,31.7C1280,20,1300,20,1320,21.7C1340,23,1360,27,1380,26.7C1400,27,1420,23,1430,21.7L1440,20L1440,100L1430,100C1420,100,1400,100,1380,100C1360,100,1340,100,1320,100C1300,100,1280,100,1260,100C1240,100,1220,100,1200,100C1180,100,1160,100,1140,100C1120,100,1100,100,1080,100C1060,100,1040,100,1020,100C1000,100,980,100,960,100C940,100,920,100,900,100C880,100,860,100,840,100C820,100,800,100,780,100C760,100,740,100,720,100C700,100,680,100,660,100C640,100,620,100,600,100C580,100,560,100,540,100C520,100,500,100,480,100C460,100,440,100,420,100C400,100,380,100,360,100C340,100,320,100,300,100C280,100,260,100,240,100C220,100,200,100,180,100C160,100,140,100,120,100C100,100,80,100,60,100C40,100,20,100,10,100L0,100Z"/></svg>