<?xml version="1.0" standalone="no"?><svg xmlns="http://www.w3.org/2000/svg" viewBox="0 0 1440 320"><path fill="#DED9C4" fill-opacity="1" d="M0,256L9.2,218.7C18.5,181,37,107,55,74.7C73.8,43,92,53,111,80C129.2,107,148,149,166,165.3C184.6,181,203,171,222,144C240,117,258,75,277,64C295.4,53,314,75,332,101.3C350.8,128,369,160,388,149.3C406.2,139,425,85,443,96C461.5,107,480,181,498,181.3C516.9,181,535,107,554,69.3C572.3,32,591,32,609,37.3C627.7,43,646,53,665,85.3C683.1,117,702,171,720,176C738.5,181,757,139,775,144C793.8,149,812,203,831,213.3C849.2,224,868,192,886,170.7C904.6,149,923,139,942,117.3C960,96,978,64,997,42.7C1015.4,21,1034,11,1052,48C1070.8,85,1089,171,1108,218.7C1126.2,267,1145,277,1163,245.3C1181.5,213,1200,139,1218,133.3C1236.9,128,1255,192,1274,197.3C1292.3,203,1311,149,1329,128C1347.7,107,1366,117,1385,149.3C1403.1,181,1422,235,1431,261.3L1440,288L1440,0L1430.8,0C1421.5,0,1403,0,1385,0C1366.2,0,1348,0,1329,0C1310.8,0,1292,0,1274,0C1255.4,0,1237,0,1218,0C1200,0,1182,0,1163,0C1144.6,0,1126,0,1108,0C1089.2,0,1071,0,1052,0C1033.8,0,1015,0,997,0C978.5,0,960,0,942,0C923.1,0,905,0,886,0C867.7,0,849,0,831,0C812.3,0,794,0,775,0C756.9,0,738,0,720,0C701.5,0,683,0,665,0C646.2,0,628,0,609,0C590.8,0,572,0,554,0C535.4,0,517,0,498,0C480,0,462,0,443,0C424.6,0,406,0,388,0C369.2,0,351,0,332,0C313.8,0,295,0,277,0C258.5,0,240,0,222,0C203.1,0,185,0,166,0C147.7,0,129,0,111,0C92.3,0,74,0,55,0C36.9,0,18,0,9,0L0,0Z"></path></svg>