<?xml version="1.0" standalone="no"?><svg xmlns="http://www.w3.org/2000/svg" viewBox="0 0 1440 320"><path fill="#DED9C4" fill-opacity="1" d="M0,128L26.7,122.7C53.3,117,107,107,160,128C213.3,149,267,203,320,224C373.3,245,427,235,480,229.3C533.3,224,587,224,640,186.7C693.3,149,747,75,800,74.7C853.3,75,907,149,960,165.3C1013.3,181,1067,139,1120,128C1173.3,117,1227,139,1280,133.3C1333.3,128,1387,96,1413,80L1440,64L1440,0L1413.3,0C1386.7,0,1333,0,1280,0C1226.7,0,1173,0,1120,0C1066.7,0,1013,0,960,0C906.7,0,853,0,800,0C746.7,0,693,0,640,0C586.7,0,533,0,480,0C426.7,0,373,0,320,0C266.7,0,213,0,160,0C106.7,0,53,0,27,0L0,0Z"></path></svg>